<?xml version="1.0" encoding="UTF-8"?>
<svg id="Layer_2" data-name="Layer 2" xmlns="http://www.w3.org/2000/svg" viewBox="0 0 166 135">
  <defs>
    <style>
      .cls-1 {
        font-family: Inter-SemiBold, Inter;
        font-size: 66px;
      }

      .cls-2 {
        fill: orange;
      }

      .cls-3 {
        fill: #fff;
        stroke: #fff;
        stroke-miterlimit: 10;
        stroke-width: 12px;
      }
    </style>
  </defs>
  <g id="Layer_1-2" data-name="Layer 1">
    <path class="cls-3" d="M118.19,64.42v60.77H9.81v-60.77H118.19m.59-3.81H9.21c-1.78,0-3.21,1.44-3.21,3.21v61.96c0,1.78,1.44,3.21,3.21,3.21H118.79c1.78,0,3.21-1.44,3.21-3.21V63.83c0-1.78-1.44-3.21-3.21-3.21h0Z"/>
    <path class="cls-3" d="M99.49,61.65h-3.81c0-19.57-14.21-35.49-31.68-35.49s-31.68,15.92-31.68,35.49h-3.81c0-10.46,3.67-20.3,10.33-27.72,6.71-7.47,15.65-11.59,25.17-11.59s18.46,4.11,25.17,11.59c6.66,7.41,10.33,17.26,10.33,27.72Z"/>
    <circle class="cls-2" cx="120" cy="46" r="46"/>
    <text class="cls-1" transform="translate(99.28 68.13)"><tspan x="0" y="0">1</tspan></text>
  </g>
</svg>