<?xml version="1.0" encoding="UTF-8"?>
<svg id="Layer_1" data-name="Layer 1" xmlns="http://www.w3.org/2000/svg" viewBox="0 0 120 110.65">
  <defs>
    <style>
      .cls-1 {
        fill: #fff;
        stroke: #fff;
        stroke-miterlimit: 10;
        stroke-width: 4px;
      }
    </style>
  </defs>
  <path class="cls-1" d="M114.19,44.07v60.77H5.81V44.07H114.19m.59-3.81H5.21c-1.78,0-3.21,1.44-3.21,3.21v61.96c0,1.78,1.44,3.21,3.21,3.21H114.79c1.78,0,3.21-1.44,3.21-3.21V43.48c0-1.78-1.44-3.21-3.21-3.21h0Z"/>
  <path class="cls-1" d="M95.49,41.3h-3.81c0-19.57-14.21-35.49-31.68-35.49s-31.68,15.92-31.68,35.49h-3.81c0-10.46,3.67-20.3,10.33-27.72,6.71-7.47,15.65-11.59,25.17-11.59s18.46,4.11,25.17,11.59c6.66,7.41,10.33,17.26,10.33,27.72Z"/>
</svg>