<?xml version="1.0" encoding="UTF-8"?>
<svg id="Layer_1" data-name="Layer 1" xmlns="http://www.w3.org/2000/svg" viewBox="0 0 116 106.65">
  <path d="M112.19,42.07v60.77H3.81V42.07H112.19m.59-3.81H3.21c-1.78,0-3.21,1.44-3.21,3.21v61.96c0,1.78,1.44,3.21,3.21,3.21H112.79c1.78,0,3.21-1.44,3.21-3.21V41.48c0-1.78-1.44-3.21-3.21-3.21h0Z"/>
  <path d="M93.49,39.3h-3.81c0-19.57-14.21-35.49-31.68-35.49s-31.68,15.92-31.68,35.49h-3.81c0-10.46,3.67-20.3,10.33-27.72C39.54,4.11,48.48,0,58,0s18.46,4.11,25.17,11.59c6.66,7.41,10.33,17.26,10.33,27.72Z"/>
</svg>