<?xml version="1.0" encoding="UTF-8"?>
<svg id="Layer_1" data-name="Layer 1" xmlns="http://www.w3.org/2000/svg" viewBox="0 0 119 107">
  <path d="M119,107H0v-18.05c0-11.27,9.17-20.45,20.45-20.45H97.33c11.95,0,21.67,9.72,21.67,21.67v16.83ZM6,101H113v-10.83c0-8.64-7.03-15.67-15.67-15.67H20.45c-7.97,0-14.45,6.48-14.45,14.45v12.05Z"/>
  <path d="M61.5,65c-17.92,0-32.5-14.58-32.5-32.5S43.58,0,61.5,0s32.5,14.58,32.5,32.5-14.58,32.5-32.5,32.5Zm0-59c-14.61,0-26.5,11.89-26.5,26.5s11.89,26.5,26.5,26.5,26.5-11.89,26.5-26.5S76.11,6,61.5,6Z"/>
</svg>