<?xml version="1.0" encoding="UTF-8"?>
<svg id="Layer_1" data-name="Layer 1" xmlns="http://www.w3.org/2000/svg" viewBox="0 0 122 110">
  <defs>
    <style>
      .cls-1 {
        fill: #fff;
        stroke: #fff;
        stroke-miterlimit: 10;
        stroke-width: 3px;
      }
    </style>
  </defs>
  <path class="cls-1" d="M120.5,108.5H1.5v-18.05c0-11.27,9.17-20.45,20.45-20.45H98.83c11.95,0,21.67,9.72,21.67,21.67v16.83ZM7.5,102.5H114.5v-10.83c0-8.64-7.03-15.67-15.67-15.67H21.95c-7.97,0-14.45,6.48-14.45,14.45v12.05Z"/>
  <path class="cls-1" d="M63,66.5c-17.92,0-32.5-14.58-32.5-32.5S45.08,1.5,63,1.5s32.5,14.58,32.5,32.5-14.58,32.5-32.5,32.5Zm0-59c-14.61,0-26.5,11.89-26.5,26.5s11.89,26.5,26.5,26.5,26.5-11.89,26.5-26.5S77.61,7.5,63,7.5Z"/>
</svg>