<?xml version="1.0" encoding="UTF-8"?>
<svg id="Layer_1" data-name="Layer 1" xmlns="http://www.w3.org/2000/svg" viewBox="0 0 120 108">
  <defs>
    <style>
      .cls-1 {
        fill: #fff;
        stroke: #fff;
        stroke-miterlimit: 10;
      }
    </style>
  </defs>
  <path class="cls-1" d="M119.5,107.5H.5v-18.05c0-11.27,9.17-20.45,20.45-20.45H97.83c11.95,0,21.67,9.72,21.67,21.67v16.83ZM6.5,101.5H113.5v-10.83c0-8.64-7.03-15.67-15.67-15.67H20.95c-7.97,0-14.45,6.48-14.45,14.45v12.05Z"/>
  <path class="cls-1" d="M62,65.5c-17.92,0-32.5-14.58-32.5-32.5S44.08,.5,62,.5s32.5,14.58,32.5,32.5-14.58,32.5-32.5,32.5Zm0-59c-14.61,0-26.5,11.89-26.5,26.5s11.89,26.5,26.5,26.5,26.5-11.89,26.5-26.5S76.61,6.5,62,6.5Z"/>
</svg>