<?xml version="1.0" encoding="UTF-8"?>
<svg id="Layer_1" data-name="Layer 1" xmlns="http://www.w3.org/2000/svg" viewBox="0 0 125.84 112.92">
  <defs>
    <style>
      .cls-1 {
        fill: #fff;
      }
    </style>
  </defs>
  <path class="cls-1" d="M48.25,91.22C21.64,91.22,0,70.76,0,45.61S21.64,0,48.25,0s48.25,20.46,48.25,45.61-21.64,45.61-48.25,45.61Zm0-86.22C24.4,5,5,23.22,5,45.61s19.4,40.61,43.25,40.61,43.25-18.22,43.25-40.61S72.1,5,48.25,5Z"/>
  <g>
    <rect class="cls-1" x="77" y="84" width="46" height="13" transform="translate(73.59 -41.76) rotate(36.56)"/>
    <path class="cls-1" d="M115.12,112.92l-40.96-30.38,10.72-14.46,40.96,30.38-10.72,14.46Zm-33.97-31.42l32.93,24.42,4.77-6.43-32.93-24.42-4.77,6.43Z"/>
  </g>
</svg>