<?xml version="1.0" encoding="UTF-8"?>
<svg id="Layer_1" data-name="Layer 1" xmlns="http://www.w3.org/2000/svg" viewBox="0 0 123.49 112.04">
  <defs>
    <style>
      .cls-1 {
        fill: #fff;
        stroke: #fff;
        stroke-miterlimit: 10;
        stroke-width: 10px;
      }
    </style>
  </defs>
  <path class="cls-1" d="M47.75,85.82c-23.58,0-42.75-18.13-42.75-40.41S24.17,5,47.75,5s42.75,18.13,42.75,40.41-19.17,40.41-42.75,40.41Zm0-76.39C26.62,9.43,9.43,25.57,9.43,45.41s17.19,35.98,38.32,35.98,38.32-16.14,38.32-35.98S68.88,9.43,47.75,9.43Z"/>
  <g>
    <rect class="cls-1" x="87.85" y="64.8" width="11.52" height="40.76" transform="translate(-30.57 109.63) rotate(-53.44)"/>
    <path class="cls-1" d="M107,105.05l-36.29-26.92,9.5-12.81,36.29,26.92-9.5,12.81Zm-30.1-27.84l29.18,21.64,4.23-5.7-29.18-21.64-4.23,5.7Z"/>
  </g>
</svg>