<?xml version="1.0" encoding="utf-8"?>
<!-- Generator: Adobe Illustrator 26.5.0, SVG Export Plug-In . SVG Version: 6.00 Build 0)  -->
<svg version="1.1" id="Lager_1" xmlns="http://www.w3.org/2000/svg" xmlns:xlink="http://www.w3.org/1999/xlink" x="0px" y="0px"
	 viewBox="0 0 841.89 595.28" style="enable-background:new 0 0 841.89 595.28;" xml:space="preserve">
<style type="text/css">
	.st0{fill:none;stroke:#FFFFFF;stroke-width:2;stroke-miterlimit:10;}
	.st1{fill:none;stroke:#FFFFFF;stroke-miterlimit:10;}
</style>
<g>
	<polygon class="st0" points="323.21,282.31 265.88,282.07 266.39,280.77 294.5,208.49 322.13,279.54 322.61,280.77 	"/>
	<polygon class="st0" points="359.83,376.46 229.17,376.46 253.21,314.65 253.81,313.11 335.19,313.11 335.79,314.65 	"/>
	<path class="st0" d="M360.06,280.77"/>
	<path class="st0" d="M360.06,280.77c-4.34-6.83-6.69-15.19-6.81-25.11c-0.22-32.06,27.98-49.7,59.08-49.32
		c25.19-0.05,53.3,10.8,59.94,36.01l-28.57,7.08c-5.28-24.72-58.82-26.86-59.57,1.83c-2.1,18.57,37.03,22.71,51.52,27.1
		c3.01,0.73,5.85,1.53,8.53,2.41"/>
	<path class="st0" d="M477.42,313.11c0.89,3.75,1.4,7.83,1.56,12.25v0.49c0,66.83-119.58,70.36-134.52,9.52l29.18-6.23
		c1.49,24.21,45.92,31.77,64.88,18.44c9.91-6.85,10.97-19.12,4.7-28.39c-1.34-2.3-4.37-4.31-8.34-6.08"/>
	<path class="st0" d="M478.98,313.11v61.45h32.03v-61.45"/>
	<path class="st0" d="M612.97,280.77c0.03-14.55,0.41-30.89-4.2-42.04c-2.5-6.01-6.1-11.55-10.85-16.17
		c-0.45-0.57-0.93-1.12-1.44-1.65c-21.1-22.25-88.07-11.79-116.74-13.98c-0.13-0.01-0.26-0.01-0.38-0.03
		c-0.13,0-0.25-0.02-0.38-0.03v75.44 M511.01,282.31v-48.88c21.89,1.22,60.2-6.74,67.22,17.75c0.68,2.34,1.25,23.44,1.34,29.59"/>
	<line class="st1" x1="265.87" y1="282.07" x2="265.87" y2="282.07"/>
	<line class="st1" x1="322.13" y1="279.54" x2="323.13" y2="279.54"/>
</g>
</svg>
